<svg width="49" height="42" viewBox="0 0 49 42" fill="none" xmlns="http://www.w3.org/2000/svg">
<path d="M48.8298 29.4118C49.2614 30.3597 48.843 31.4772 47.8951 31.9069L27.1651 41.3296C26.9182 41.4427 26.6525 41.4992 26.3849 41.4992C26.1983 41.4992 26.0118 41.471 25.8308 41.4163L1.33178 33.8782C0.33674 33.571 -0.221085 32.5156 0.0842111 31.5225C0.389507 30.5274 1.44674 29.964 2.43989 30.2749L26.2567 37.6039L46.3347 28.4771C47.292 28.038 48.402 28.4676 48.8298 29.4118ZM26.2567 30.0657L2.43989 22.7367C1.44674 22.4258 0.391392 22.9893 0.0842111 23.9843C-0.222969 24.9775 0.33674 26.0328 1.33178 26.34L25.8308 33.8782C26.0118 33.9328 26.1983 33.9611 26.3849 33.9611C26.6525 33.9611 26.9182 33.9045 27.1651 33.7915L47.8951 24.3688C48.843 23.9372 49.2614 22.8215 48.8298 21.8736C48.4001 20.9295 47.292 20.5054 46.3347 20.9389L26.2567 30.0657ZM0.00317577 17.0944C-0.0363996 16.3029 0.423429 15.5717 1.15275 15.2626L14.9118 9.4639C17.6199 8.32187 18.9089 6.89716 18.9089 1.88427C18.9089 1.30572 19.1746 0.757316 19.6307 0.401138C20.0868 0.0430748 20.6804 -0.0831896 21.2439 0.054382L45.628 6.0623C46.4685 6.2696 47.0621 7.02531 47.0621 7.8922V8.17865C47.064 13.7531 47.0659 17.4336 40.2382 20.3113C35.6681 22.2373 27.2725 26.2005 27.1896 26.242C26.9371 26.3626 26.66 26.4229 26.3849 26.4229C26.1983 26.4229 26.0118 26.3946 25.8308 26.34L1.33178 18.8018C0.574192 18.5681 0.0427512 17.8859 0.00317577 17.0944ZM7.39435 16.7232L26.2398 22.5238C28.3354 21.5382 34.8371 18.4984 38.772 16.84C42.9387 15.0836 43.2666 13.7324 43.2892 9.36968L22.5781 4.26445C22.2144 8.13153 20.7482 11.094 16.378 12.9371L7.39435 16.7232Z" fill="white"/>
</svg>
