<svg width="22" height="16" viewBox="0 0 22 16" fill="none" xmlns="http://www.w3.org/2000/svg">
<path d="M17.4167 9.83341V2.50008C17.4167 1.49175 16.5917 0.666748 15.5834 0.666748H2.75008C1.74175 0.666748 0.916748 1.49175 0.916748 2.50008V9.83341C0.916748 10.8417 1.74175 11.6667 2.75008 11.6667H15.5834C16.5917 11.6667 17.4167 10.8417 17.4167 9.83341ZM15.5834 9.83341H2.75008V2.50008H15.5834V9.83341ZM9.16675 3.41675C7.64508 3.41675 6.41675 4.64508 6.41675 6.16675C6.41675 7.68841 7.64508 8.91675 9.16675 8.91675C10.6884 8.91675 11.9167 7.68841 11.9167 6.16675C11.9167 4.64508 10.6884 3.41675 9.16675 3.41675ZM21.0834 3.41675V13.5001C21.0834 14.5084 20.2584 15.3334 19.2501 15.3334H3.66675C3.66675 14.4167 3.66675 14.5084 3.66675 13.5001H19.2501V3.41675C20.2584 3.41675 20.1667 3.41675 21.0834 3.41675Z" fill="white" fill-opacity="0.5"/>
</svg>
