<svg width="134" height="134" viewBox="0 0 134 134" fill="none" xmlns="http://www.w3.org/2000/svg">
<path d="M123.012 34C128.723 43.6728 132 54.9537 132 67C132 102.899 102.899 132 67 132C31.1015 132 2 102.899 2 67C2 31.1015 31.1015 2 67 2C72.1627 2 77.1848 2.60189 82 3.73932M104 13.5513C106.093 15.0027 108.096 16.5738 110 18.2547" stroke="#AB81F5" stroke-width="4" stroke-linecap="round"/>
<path fill-rule="evenodd" clip-rule="evenodd" d="M94.5274 54.0975C95.8298 52.83 97.943 52.83 99.2455 54.0975C100.548 55.365 100.548 57.4216 99.2455 58.6891L68.6975 88.4211C67.6806 89.4106 66.2918 89.3703 65.3027 88.4211L34.7546 58.6891C33.4522 57.4216 33.4522 55.365 34.7546 54.0975C36.0571 52.83 38.1703 52.83 39.4727 54.0975L64.4737 78.4291C65.1635 79.1005 66.0817 79.4368 66.9998 79.4368C67.8657 79.4368 68.7293 79.1434 69.4014 78.5553L94.5265 54.0975H94.5274ZM68.7297 47.4592C67.6515 48.5086 66.2681 48.3992 65.2258 47.4074L55.7683 38.2099C54.7279 37.1973 54.7279 35.5506 55.7683 34.538C56.8093 33.525 58.5009 33.525 59.5419 34.538L65.5519 40.385C66.3136 41.2188 67.6428 41.1719 68.4396 40.3965L74.4601 34.5376C75.501 33.5246 77.1927 33.5246 78.2336 34.5376C79.2746 35.5501 79.2746 37.1969 78.2336 38.2094L68.7306 47.4588L68.7297 47.4592ZM68.6856 67.6304C67.7356 68.5549 66.289 68.5447 65.2936 67.607L45.4523 48.2979C44.2808 47.1578 44.2808 45.3084 45.4523 44.1685C46.6237 43.0284 48.5241 43.0284 49.6955 44.1685L65.9475 59.9844C66.2317 60.261 66.6146 60.4 67.0003 60.4C67.3845 60.4 67.7688 60.261 68.0531 59.9844L84.305 44.1685C85.4765 43.0284 87.3764 43.0284 88.5483 44.1685C89.7197 45.3084 89.7197 47.1578 88.5483 48.2979L68.6856 67.6304Z" fill="#AB81F5"/>
<path d="M44.4839 100.222C43.3583 100.222 42.4445 98.9817 42.4445 97.4539C42.4445 95.926 43.3583 94.6851 44.4839 94.6851H89.5161C90.6417 94.6851 91.5556 95.9254 91.5556 97.4539C91.5556 98.9817 90.6417 100.222 89.5161 100.222H44.4839Z" fill="#AB81F5"/>
</svg>
