<svg width="22" height="22" viewBox="0 0 22 22" fill="none" xmlns="http://www.w3.org/2000/svg">
<path d="M19.25 6.67333V4.58333C19.25 3.575 18.425 2.75 17.4167 2.75H4.58333C3.56583 2.75 2.75 3.575 2.75 4.58333V17.4167C2.75 18.425 3.56583 19.25 4.58333 19.25H17.4167C18.425 19.25 19.25 18.425 19.25 17.4167V15.3267C19.7908 15.0058 20.1667 14.4283 20.1667 13.75V8.25C20.1667 7.57167 19.7908 6.99417 19.25 6.67333ZM18.3333 8.25V13.75H11.9167V8.25H18.3333ZM4.58333 17.4167V4.58333H17.4167V6.41667H11.9167C10.9083 6.41667 10.0833 7.24167 10.0833 8.25V13.75C10.0833 14.7583 10.9083 15.5833 11.9167 15.5833H17.4167V17.4167H4.58333Z" fill="white" fill-opacity="0.5"/>
<path d="M14.6667 12.375C15.4261 12.375 16.0417 11.7594 16.0417 11C16.0417 10.2406 15.4261 9.625 14.6667 9.625C13.9074 9.625 13.2917 10.2406 13.2917 11C13.2917 11.7594 13.9074 12.375 14.6667 12.375Z" fill="white" fill-opacity="0.5"/>
</svg>
